<svg xmlns="http://www.w3.org/2000/svg" viewBox="0 0 21 20"><title>z-box</title><g id="Camada_2" data-name="Camada 2"><g id="Camada_1-2" data-name="Camada 1"><path d="M14.56,16.76a.35.35,0,0,0,.14,0l4.35-1.59a.41.41,0,0,0,.25-.53.42.42,0,0,0-.54-.24L14.41,16a.42.42,0,0,0,.15.81Zm-1.38.5a.35.35,0,0,0,.14,0l.19-.06a.42.42,0,0,0,.24-.54.41.41,0,0,0-.53-.24l-.19.07a.42.42,0,0,0-.25.53A.45.45,0,0,0,13.18,17.26Zm2.29-2.52a.32.32,0,0,0,.14,0l3.44-1.25a.41.41,0,0,0,.25-.53.43.43,0,0,0-.54-.25l-3.43,1.26a.41.41,0,0,0,.14.8Zm0-1.67.14,0,3.44-1.26a.41.41,0,0,0,.25-.53.42.42,0,0,0-.54-.24l-3.43,1.25a.41.41,0,0,0,.14.8ZM20.73,3.7,10.64,0a.34.34,0,0,0-.28,0L.27,3.7h0l-.09,0A.42.42,0,0,0,0,4.09V15.91a.41.41,0,0,0,.27.39L10.36,20a.34.34,0,0,0,.28,0h0L20.73,16.3a.41.41,0,0,0,.27-.39V4.09A.42.42,0,0,0,20.73,3.7ZM10.08,19,.84,15.62V4.68l1.88.69v5a.41.41,0,0,0,.27.39l4.52,1.65.15,0a.4.4,0,0,0,.23-.08A.39.39,0,0,0,8.07,12V7.32l2,.73ZM7.24,7v4.42L3.56,10.09V5.67ZM4.35,5.08,7.66,3.87,11,5.08l-3.3,1.2ZM10.5,7.32l-1.64-.6,3.46-1.26a.41.41,0,0,0,0-.77L7.8,3a.48.48,0,0,0-.29,0L3.13,4.64l-1.5-.55L10.5.85l8.87,3.24Zm9.66,8.3L10.92,19V8.05l9.24-3.37Z"/></g></g></svg>