<svg xmlns="http://www.w3.org/2000/svg" viewBox="0 0 20 17.65"><title>z-cart</title><g id="Camada_2" data-name="Camada 2"><g id="Camada_1-2" data-name="Camada 1"><path d="M14.61,13.89a1.88,1.88,0,1,0,1.85,1.88A1.88,1.88,0,0,0,14.61,13.89Zm0,3a1.13,1.13,0,1,1,1.11-1.13A1.13,1.13,0,0,1,14.61,16.9Zm-7.43-3A1.88,1.88,0,1,0,9,15.77,1.87,1.87,0,0,0,7.18,13.89Zm0,3A1.13,1.13,0,1,1,8.3,15.77,1.12,1.12,0,0,1,7.18,16.9ZM19.8,3.12a1.08,1.08,0,0,0-.9-.49H3.75L3.53,1.5A1.84,1.84,0,0,0,1.71,0H.37a.38.38,0,0,0,0,.75H1.71a1.08,1.08,0,0,1,1.07.9l.28,1.43a.25.25,0,0,0,0,.11l1.6,8.45a1.88,1.88,0,0,0,1.83,1.52h8.69A1.86,1.86,0,0,0,17,11.94l3-7.77A1.12,1.12,0,0,0,19.8,3.12Zm-.57.77-2.95,7.77a1.11,1.11,0,0,1-1,.73H6.55a1.14,1.14,0,0,1-1.09-.92L4.34,5.63H13.1a.38.38,0,1,0,0-.75H4.19l-.27-1.5h15a.35.35,0,0,1,.29.15A.36.36,0,0,1,19.23,3.89Zm-3.9,1h-.56a.38.38,0,0,0,0,.75h.56a.38.38,0,0,0,0-.75Z"/></g></g></svg>