<svg xmlns="http://www.w3.org/2000/svg" viewBox="0 0 27 20"><title>z-glass</title><g id="Camada_2" data-name="Camada 2"><g id="Camada_1-2" data-name="Camada 1"><path d="M20.8,20a6.14,6.14,0,0,1-4.61-1.85,8.67,8.67,0,0,1-1.4-4.3,2,2,0,0,0-2.55,0v0a8.64,8.64,0,0,1-1.4,4.24,6.51,6.51,0,0,1-7,1.36,4.56,4.56,0,0,1-2.24-3.32h-.3A1.27,1.27,0,0,1,0,14.91V5.11A5,5,0,0,1,2.84.61L4.09,0a.37.37,0,0,1,.3.67l-1.25.58A4.23,4.23,0,0,0,.73,5.11v9.8a.54.54,0,0,0,.53.55h.22a4.59,4.59,0,0,1,1.26-3.61c2-1.93,8.56-.67,9.29-.52h3c.74-.15,7.28-1.41,9.29.52a4.59,4.59,0,0,1,1.27,3.61h.19a.54.54,0,0,0,.53-.55V5.11a4.23,4.23,0,0,0-2.41-3.83L22.61.7a.37.37,0,0,1,.3-.67l1.25.58A5,5,0,0,1,27,5.11v9.8a1.27,1.27,0,0,1-1.26,1.28h-.28a4.56,4.56,0,0,1-2.24,3.32A5.51,5.51,0,0,1,20.8,20Zm-4.1-2.37,0,0a5.82,5.82,0,0,0,6.17,1.19,3.88,3.88,0,0,0,1.88-3,4,4,0,0,0-1-3.48c-1.44-1.38-6.3-.79-8.41-.38,0,.33,0,.91.11,1.58a.19.19,0,0,1,0,.08c.05.43.11.9.2,1.36l.1,0a.89.89,0,0,1,.89.11,1.67,1.67,0,0,1,.61.74,1.83,1.83,0,0,1,.18,1,.92.92,0,0,1-.48.77A.84.84,0,0,1,16.7,17.63Zm-9.8-6.1c-1.55,0-3,.21-3.66.86a4,4,0,0,0-1,3.48,3.87,3.87,0,0,0,1.87,3,5.81,5.81,0,0,0,6.17-1.19l0,0a.69.69,0,0,1-.28-.08c-.51-.24-.64-1-.31-1.72a1.76,1.76,0,0,1,.62-.74.89.89,0,0,1,.89-.11l.08,0a20.37,20.37,0,0,0,.33-3h0A26.71,26.71,0,0,0,6.9,11.53Zm4,4.11a.33.33,0,0,0-.16.07,1.14,1.14,0,0,0-.35.44c-.18.38-.12.7,0,.74a.26.26,0,0,0,.19-.06,1.14,1.14,0,0,0,.35-.44,1.06,1.06,0,0,0,.11-.56c0-.11,0-.17-.07-.18h0Zm5.23,0h0s-.07.07-.08.18a1.17,1.17,0,0,0,.11.56h0a1.07,1.07,0,0,0,.36.44.26.26,0,0,0,.19.06.32.32,0,0,0,.07-.19,1,1,0,0,0-.11-.55,1.07,1.07,0,0,0-.36-.44A.27.27,0,0,0,16.13,15.64Zm-3.76-3.57c0,.22,0,.53,0,.9a2.63,2.63,0,0,1,2.38,0c0-.36,0-.65,0-.87Z"/></g></g></svg>