<svg xmlns="http://www.w3.org/2000/svg" viewBox="0 0 22 20"><title>z-note</title><g id="Camada_2" data-name="Camada 2"><g id="Camada_1-2" data-name="Camada 1"><path d="M17.53,13.42a.44.44,0,0,0-.43.44v3.95a1.3,1.3,0,0,1-1.28,1.31H2.14A1.3,1.3,0,0,1,.86,17.81V5.51A1.3,1.3,0,0,1,2.14,4.2h9.41a.44.44,0,0,0,0-.88H2.14A2.17,2.17,0,0,0,0,5.51v12.3A2.17,2.17,0,0,0,2.14,20H15.82A2.17,2.17,0,0,0,18,17.81V13.86A.43.43,0,0,0,17.53,13.42Zm0-2.62a.44.44,0,0,0-.43.44v.64a.44.44,0,0,0,.43.44.44.44,0,0,0,.43-.44v-.64A.44.44,0,0,0,17.53,10.8Zm3.85-8.91L20.16.64a2.1,2.1,0,0,0-3,0L8.81,9.2a.91.91,0,0,0-.26.62v3.4l-.3.31a.43.43,0,0,0,0,.61.38.38,0,0,0,.3.15.39.39,0,0,0,.3-.13l.3-.3,0,0h3.27a.75.75,0,0,0,.6-.26L20.4,6A.5.5,0,0,0,20.48,6a.5.5,0,0,1,.07-.08L21.38,5A2.2,2.2,0,0,0,22,3.45,2.2,2.2,0,0,0,21.38,1.89ZM12.19,13H9.41V10.12h.85v1.32a.64.64,0,0,0,.64.66h1.29Zm.85-.62v-.46a.64.64,0,0,0-.64-.66H11.12V9.9a.63.63,0,0,0-.64-.65H10l6.55-6.72,3,3.12ZM20.78,4.4l-.6.61-3-3.12.6-.61a1.26,1.26,0,0,1,1.81,0l1.22,1.25a1.28,1.28,0,0,1,.36.92A1.37,1.37,0,0,1,20.78,4.4Z"/></g></g></svg>