<svg xmlns="http://www.w3.org/2000/svg" viewBox="0 0 17.88 18.26"><title>z-phone</title><g id="Camada_2" data-name="Camada 2"><g id="Camada_1-2" data-name="Camada 1"><path d="M14.14,11.31a1.76,1.76,0,0,0-1.28-.6,1.81,1.81,0,0,0-1.29.6l-1.19,1.21-.29-.15-.38-.21A13.08,13.08,0,0,1,6.6,9.27a7.94,7.94,0,0,1-1-1.64c.31-.29.6-.59.88-.88l.31-.32a1.79,1.79,0,0,0,0-2.67l-1-1-.35-.37c-.23-.24-.46-.49-.71-.72a1.78,1.78,0,0,0-1.27-.56,1.82,1.82,0,0,0-1.28.56h0L.84,3A2.84,2.84,0,0,0,0,4.74,6.69,6.69,0,0,0,.5,7.6a16.61,16.61,0,0,0,2.89,4.92,17.86,17.86,0,0,0,5.92,4.73,9,9,0,0,0,3.33,1h.24a2.81,2.81,0,0,0,2.18-1h0a7.33,7.33,0,0,1,.67-.7l.49-.5a2,2,0,0,0,.57-1.33,1.86,1.86,0,0,0-.58-1.32Zm1.35,4.06c-.14.16-.29.31-.46.47s-.49.49-.73.77a1.79,1.79,0,0,1-1.42.61h-.17a8.06,8.06,0,0,1-3-.9,16.89,16.89,0,0,1-5.58-4.46A15.64,15.64,0,0,1,1.46,7.24,5.57,5.57,0,0,1,1,4.83a1.73,1.73,0,0,1,.52-1.15L2.85,2.37a.82.82,0,0,1,.57-.27A.77.77,0,0,1,4,2.37H4c.24.22.45.45.68.69L5,3.44l1,1.05a.75.75,0,0,1,0,1.2L5.73,6c-.32.33-.62.64-1,.94l0,0a.79.79,0,0,0-.19.87v0a8.33,8.33,0,0,0,1.22,2h0A14.16,14.16,0,0,0,9.16,13c.15.1.31.18.46.26s.27.13.38.2l0,0a.88.88,0,0,0,.38.09.81.81,0,0,0,.57-.26L12.29,12a.83.83,0,0,1,.57-.29.77.77,0,0,1,.54.28h0l2.08,2.12A.77.77,0,0,1,15.49,15.37ZM12.27,5.72a5,5,0,0,1,1.36,2.66.5.5,0,0,0,.5.43h.09a.53.53,0,0,0,.42-.6A6,6,0,0,0,13,5,5.78,5.78,0,0,0,9.84,3.32a.52.52,0,0,0-.17,1A4.73,4.73,0,0,1,12.27,5.72Zm2.91-3A9.48,9.48,0,0,0,10,0,.51.51,0,0,0,9.4.43a.51.51,0,0,0,.42.6,8.57,8.57,0,0,1,4.64,2.46,8.78,8.78,0,0,1,2.41,4.73.51.51,0,0,0,.5.44h.09a.51.51,0,0,0,.42-.59A9.82,9.82,0,0,0,15.18,2.76Z"/></g></g></svg>