<svg xmlns="http://www.w3.org/2000/svg" viewBox="0 0 20 20"><title>z-search</title><g id="Camada_2" data-name="Camada 2"><g id="Camada_1-2" data-name="Camada 1"><path d="M12,0A8.1,8.1,0,0,0,6,13.32l-5.86,6a.41.41,0,0,0,0,.59A.37.37,0,0,0,.42,20a.39.39,0,0,0,.29-.13l5.84-5.93A7.91,7.91,0,0,0,12,16.17a8,8,0,0,0,8-8.08A8,8,0,0,0,12,0Zm0,15.32A7.24,7.24,0,0,1,12,.85a7.24,7.24,0,0,1,0,14.47Zm-4.46-10a.44.44,0,0,0,.34-.17l.18-.25A.42.42,0,0,0,8,4.34a.4.4,0,0,0-.59.09l-.18.25a.42.42,0,0,0,.08.6A.41.41,0,0,0,7.58,5.36ZM7,8.09a5.58,5.58,0,0,1,.16-1.3.41.41,0,0,0-.29-.53.41.41,0,0,0-.52.29,5.87,5.87,0,0,0,1.71,5.9.53.53,0,0,0,.28.1.39.39,0,0,0,.31-.15.42.42,0,0,0,0-.59A5.05,5.05,0,0,1,7,8.09Z"/></g></g></svg>