<svg xmlns="http://www.w3.org/2000/svg" viewBox="0 0 20 20"><title>z-user</title><g id="Camada_2" data-name="Camada 2"><g id="Camada_1-2" data-name="Camada 1"><path d="M10,12c2.73,0,5.14-3.28,5.14-7A5.07,5.07,0,0,0,10,0,5.07,5.07,0,0,0,4.85,5C4.85,8.72,7.26,12,10,12ZM10,.8A4.3,4.3,0,0,1,14.16,4,2.25,2.25,0,0,1,11.8,3a.41.41,0,0,0-.21-.26.41.41,0,0,0-.55.18C10.38,4.2,8.26,4.7,5.76,4.2A4.27,4.27,0,0,1,10,.8ZM7.59,5.2a4.94,4.94,0,0,0,3.82-1.38,3.12,3.12,0,0,0,2.3,1,2.86,2.86,0,0,0,.58-.06c0,.08,0,.16,0,.24,0,3.3-2,6.2-4.32,6.2S5.67,8.3,5.67,5A11.19,11.19,0,0,0,7.59,5.2ZM19.94,18.44l-1-3a5.46,5.46,0,0,0-3.9-3.74l-.27-.08s-.06,0-.1,0a1,1,0,0,0-1,.3l0,0A5,5,0,0,1,10,13.78,5.09,5.09,0,0,1,6.27,11.9a1.1,1.1,0,0,0-1-.32h0a.25.25,0,0,0-.12,0l-.25.08A5.45,5.45,0,0,0,1,15.42L0,18.48a1.21,1.21,0,0,0,.21,1.06,1.18,1.18,0,0,0,1,.46H18.77a1.22,1.22,0,0,0,1-.48A1.14,1.14,0,0,0,19.94,18.44ZM19.1,19a.45.45,0,0,1-.33.16H1.22A.36.36,0,0,1,.91,19a.43.43,0,0,1-.09-.36l1-3a4.62,4.62,0,0,1,3.37-3.18l.21-.06a.15.15,0,0,0,.1,0,.22.22,0,0,1,.2.06A5.93,5.93,0,0,0,10,14.58a5.89,5.89,0,0,0,4.34-2.16.27.27,0,0,1,.2-.08l.08,0,.27.08a4.64,4.64,0,0,1,3.35,3.18l.95,3A.53.53,0,0,1,19.1,19Z"/></g></g></svg>