<svg class="svg-sprites" id="skin-sprite" xmlns="http://www.w3.org/2000/svg" xmlns:xlink="http://www.w3.org/1999/xlink">
    <symbol viewBox="0 0 20 17.65" id="z-cart" xmlns="http://www.w3.org/2000/svg"><g data-name="Camada 2"><path d="M14.61 13.89a1.88 1.88 0 101.85 1.88 1.88 1.88 0 00-1.85-1.88zm0 3a1.13 1.13 0 111.11-1.13 1.13 1.13 0 01-1.11 1.14zm-7.43-3A1.88 1.88 0 109 15.77a1.87 1.87 0 00-1.82-1.88zm0 3a1.13 1.13 0 111.12-1.12 1.12 1.12 0 01-1.12 1.13zM19.8 3.12a1.08 1.08 0 00-.9-.49H3.75L3.53 1.5A1.84 1.84 0 001.71 0H.37a.38.38 0 000 .75h1.34a1.08 1.08 0 011.07.9l.28 1.43a.25.25 0 000 .11l1.6 8.45a1.88 1.88 0 001.83 1.52h8.69A1.86 1.86 0 0017 11.94l3-7.77a1.12 1.12 0 00-.2-1.05zm-.57.77l-2.95 7.77a1.11 1.11 0 01-1 .73H6.55a1.14 1.14 0 01-1.09-.92L4.34 5.63h8.76a.38.38 0 100-.75H4.19l-.27-1.5h15a.35.35 0 01.29.15.36.36 0 01.02.36zm-3.9 1h-.56a.38.38 0 000 .75h.56a.38.38 0 000-.75z" data-name="Camada 1"/></g></symbol>
    <symbol viewBox="0 0 18 13.73" id="z-email" xmlns="http://www.w3.org/2000/svg"><g data-name="Camada 2"><path d="M16.42 0H1.58A1.58 1.58 0 000 1.58v10.56a1.59 1.59 0 001.58 1.59h14.84A1.59 1.59 0 0018 12.14V1.58A1.58 1.58 0 0016.42 0zm-.22 1.06L9 8.23 1.81 1.06zM1.05 11.92V1.8l5.08 5zm.75.75l5.08-5.09 1.78 1.77a.54.54 0 00.75 0l1.73-1.74 5.06 5.06zm15.2-.75l-5.11-5.06L17 1.8z" data-name="Camada 1"/></g></symbol>
    <symbol viewBox="0 0 20 14" id="z-menu" xmlns="http://www.w3.org/2000/svg"><g data-name="Camada 2"><path d="M19.19 6.18H.81a.82.82 0 000 1.64h18.38a.82.82 0 000-1.64zM.81 1.63h18.38A.81.81 0 0020 .82a.81.81 0 00-.81-.82H.81A.81.81 0 000 .82a.81.81 0 00.81.81zm18.38 10.74H.81a.82.82 0 000 1.63h18.38a.82.82 0 000-1.63z" data-name="Camada 1"/></g></symbol>
    <symbol viewBox="0 0 9.99 19.02" id="z-next" xmlns="http://www.w3.org/2000/svg"><g data-name="Camada 2"><path d="M9.84 9.89l-8.93 9a.53.53 0 01-.75 0 .54.54 0 010-.76L8.7 9.51.16.92A.54.54 0 01.53 0a.51.51 0 01.38.16l8.92 9a.55.55 0 01.01.73z" data-name="Camada 1"/></g></symbol>
    <symbol viewBox="0 0 17.88 18.26" id="z-phone" xmlns="http://www.w3.org/2000/svg"><g data-name="Camada 2"><path d="M14.14 11.31a1.76 1.76 0 00-1.28-.6 1.81 1.81 0 00-1.29.6l-1.19 1.21-.29-.15-.38-.21A13.08 13.08 0 016.6 9.27a7.94 7.94 0 01-1-1.64c.31-.29.6-.59.88-.88l.31-.32a1.79 1.79 0 000-2.67l-1-1-.35-.37c-.23-.24-.46-.49-.71-.72a1.78 1.78 0 00-1.27-.56 1.82 1.82 0 00-1.28.56L.84 3A2.84 2.84 0 000 4.74 6.69 6.69 0 00.5 7.6a16.61 16.61 0 002.89 4.92 17.86 17.86 0 005.92 4.73 9 9 0 003.33 1h.24a2.81 2.81 0 002.18-1 7.33 7.33 0 01.67-.7l.49-.5a2 2 0 00.57-1.33 1.86 1.86 0 00-.58-1.32zm1.35 4.06c-.14.16-.29.31-.46.47s-.49.49-.73.77a1.79 1.79 0 01-1.42.61h-.17a8.06 8.06 0 01-3-.9 16.89 16.89 0 01-5.58-4.46 15.64 15.64 0 01-2.67-4.62A5.57 5.57 0 011 4.83a1.73 1.73 0 01.52-1.15l1.33-1.31a.82.82 0 01.57-.27.77.77 0 01.58.27c.24.22.45.45.68.69l.32.38 1 1.05a.75.75 0 010 1.2L5.73 6c-.32.33-.62.64-1 .94a.79.79 0 00-.19.87 8.33 8.33 0 001.22 2A14.16 14.16 0 009.16 13c.15.1.31.18.46.26s.27.13.38.2a.88.88 0 00.38.09.81.81 0 00.57-.26L12.29 12a.83.83 0 01.57-.29.77.77 0 01.54.28l2.08 2.12a.77.77 0 01.01 1.26zm-3.22-9.65a5 5 0 011.36 2.66.5.5 0 00.5.43h.09a.53.53 0 00.42-.6A6 6 0 0013 5a5.78 5.78 0 00-3.16-1.68.52.52 0 00-.17 1 4.73 4.73 0 012.6 1.4zm2.91-3A9.48 9.48 0 0010 0a.51.51 0 00-.6.43.51.51 0 00.42.6 8.57 8.57 0 014.64 2.46 8.78 8.78 0 012.41 4.73.51.51 0 00.5.44h.09a.51.51 0 00.42-.59 9.82 9.82 0 00-2.7-5.31z" data-name="Camada 1"/></g></symbol>
    <symbol viewBox="0 0 9.99 19.02" id="z-prev" xmlns="http://www.w3.org/2000/svg"><g data-name="Camada 2"><path d="M.15 9.13l8.92-9a.54.54 0 01.76.76L1.29 9.51l8.54 8.59a.54.54 0 010 .76.5.5 0 01-.37.16.51.51 0 01-.38-.16l-8.92-9a.55.55 0 01-.01-.73z" data-name="Camada 1"/></g></symbol>
    <symbol viewBox="0 0 20 20" id="z-search" xmlns="http://www.w3.org/2000/svg"><g data-name="Camada 2"><path d="M12 0a8.1 8.1 0 00-6 13.32l-5.86 6a.41.41 0 000 .59.37.37 0 00.28.09.39.39 0 00.29-.13l5.84-5.93A7.91 7.91 0 0012 16.17a8 8 0 008-8.08A8 8 0 0012 0zm0 15.32A7.24 7.24 0 0112 .85a7.24 7.24 0 010 14.47zm-4.46-10a.44.44 0 00.34-.17l.18-.25A.42.42 0 008 4.34a.4.4 0 00-.59.09l-.18.25a.42.42 0 00.08.6.41.41 0 00.27.08zM7 8.09a5.58 5.58 0 01.16-1.3.41.41 0 00-.29-.53.41.41 0 00-.52.29 5.87 5.87 0 001.71 5.9.53.53 0 00.28.1.39.39 0 00.31-.15.42.42 0 000-.59A5.05 5.05 0 017 8.09z" data-name="Camada 1"/></g></symbol>
    <symbol viewBox="0 0 18 18.3" id="z-timer" xmlns="http://www.w3.org/2000/svg"><g data-name="Camada 2"><path d="M9 0a9.08 9.08 0 00-9 9.15 9.08 9.08 0 009 9.15 9.08 9.08 0 009-9.15A9.08 9.08 0 009 0zm0 17a7.82 7.82 0 01-7.74-7.85A7.81 7.81 0 019 1.28a7.81 7.81 0 017.74 7.87A7.81 7.81 0 019 17zm2.58-8.09H9.22V5.17a.64.64 0 10-1.28 0v4.41a.64.64 0 00.64.65h3a.65.65 0 000-1.3z" data-name="Camada 1"/></g></symbol>
    <symbol viewBox="0 0 21 20" id="z-box" xmlns="http://www.w3.org/2000/svg"><g data-name="Camada 2"><path d="M14.56 16.76a.35.35 0 00.14 0l4.35-1.59a.41.41 0 00.25-.53.42.42 0 00-.54-.24L14.41 16a.42.42 0 00.15.81zm-1.38.5a.35.35 0 00.14 0l.19-.06a.42.42 0 00.24-.54.41.41 0 00-.53-.24l-.19.07a.42.42 0 00-.25.53.45.45 0 00.4.24zm2.29-2.52a.32.32 0 00.14 0l3.44-1.25a.41.41 0 00.25-.53.43.43 0 00-.54-.25l-3.43 1.26a.41.41 0 00.14.8zm0-1.67h.14l3.44-1.26a.41.41 0 00.25-.53.42.42 0 00-.54-.24l-3.43 1.25a.41.41 0 00.14.8zm5.26-9.37L10.64 0a.34.34 0 00-.28 0L.27 3.7H.18a.42.42 0 00-.18.39v11.82a.41.41 0 00.27.39L10.36 20a.34.34 0 00.28 0l10.09-3.7a.41.41 0 00.27-.39V4.09a.42.42 0 00-.27-.39zM10.08 19L.84 15.62V4.68l1.88.69v5a.41.41 0 00.27.39l4.52 1.65h.15a.4.4 0 00.23-.08.39.39 0 00.18-.33V7.32l2 .73zM7.24 7v4.42l-3.68-1.33V5.67zM4.35 5.08l3.31-1.21L11 5.08l-3.3 1.2zm6.15 2.24l-1.64-.6 3.46-1.26a.41.41 0 000-.77L7.8 3a.48.48 0 00-.29 0L3.13 4.64l-1.5-.55L10.5.85l8.87 3.24zm9.66 8.3L10.92 19V8.05l9.24-3.37z" data-name="Camada 1"/></g></symbol>
    <symbol viewBox="0 0 27 20" id="z-glass" xmlns="http://www.w3.org/2000/svg"><g data-name="Camada 2"><path d="M20.8 20a6.14 6.14 0 01-4.61-1.85 8.67 8.67 0 01-1.4-4.3 2 2 0 00-2.55 0 8.64 8.64 0 01-1.4 4.24 6.51 6.51 0 01-7 1.36 4.56 4.56 0 01-2.24-3.32h-.3A1.27 1.27 0 010 14.91v-9.8A5 5 0 012.84.61L4.09 0a.37.37 0 01.3.67l-1.25.58A4.23 4.23 0 00.73 5.11v9.8a.54.54 0 00.53.55h.22a4.59 4.59 0 011.26-3.61c2-1.93 8.56-.67 9.29-.52h3c.74-.15 7.28-1.41 9.29.52a4.59 4.59 0 011.27 3.61h.19a.54.54 0 00.53-.55v-9.8a4.23 4.23 0 00-2.41-3.83L22.61.7a.37.37 0 01.3-.67l1.25.58A5 5 0 0127 5.11v9.8a1.27 1.27 0 01-1.26 1.28h-.28a4.56 4.56 0 01-2.24 3.32 5.51 5.51 0 01-2.42.49zm-4.1-2.37a5.82 5.82 0 006.17 1.19 3.88 3.88 0 001.88-3 4 4 0 00-1-3.48c-1.44-1.38-6.3-.79-8.41-.38 0 .33 0 .91.11 1.58a.19.19 0 010 .08c.05.43.11.9.2 1.36h.1a.89.89 0 01.89.11 1.67 1.67 0 01.61.74 1.83 1.83 0 01.18 1 .92.92 0 01-.48.77.84.84 0 01-.25.03zm-9.8-6.1c-1.55 0-3 .21-3.66.86a4 4 0 00-1 3.48 3.87 3.87 0 001.87 3 5.81 5.81 0 006.17-1.19.69.69 0 01-.28-.08c-.51-.24-.64-1-.31-1.72a1.76 1.76 0 01.62-.74.89.89 0 01.89-.11h.08a20.37 20.37 0 00.33-3 26.71 26.71 0 00-4.71-.5zm4 4.11a.33.33 0 00-.16.07 1.14 1.14 0 00-.35.44c-.18.38-.12.7 0 .74a.26.26 0 00.19-.06 1.14 1.14 0 00.35-.44 1.06 1.06 0 00.11-.56c0-.11 0-.17-.07-.18zm5.23 0s-.07.07-.08.18a1.17 1.17 0 00.11.56 1.07 1.07 0 00.36.44.26.26 0 00.19.06.32.32 0 00.07-.19 1 1 0 00-.11-.55 1.07 1.07 0 00-.36-.44.27.27 0 00-.18-.06zm-3.76-3.57v.9a2.63 2.63 0 012.38 0v-.87z" data-name="Camada 1"/></g></symbol>
    <symbol viewBox="0 0 22 20" id="z-note" xmlns="http://www.w3.org/2000/svg"><g data-name="Camada 2"><path d="M17.53 13.42a.44.44 0 00-.43.44v3.95a1.3 1.3 0 01-1.28 1.31H2.14a1.3 1.3 0 01-1.28-1.31V5.51A1.3 1.3 0 012.14 4.2h9.41a.44.44 0 000-.88H2.14A2.17 2.17 0 000 5.51v12.3A2.17 2.17 0 002.14 20h13.68A2.17 2.17 0 0018 17.81v-3.95a.43.43 0 00-.47-.44zm0-2.62a.44.44 0 00-.43.44v.64a.44.44 0 00.43.44.44.44 0 00.43-.44v-.64a.44.44 0 00-.43-.44zm3.85-8.91L20.16.64a2.1 2.1 0 00-3 0L8.81 9.2a.91.91 0 00-.26.62v3.4l-.3.31a.43.43 0 000 .61.38.38 0 00.3.15.39.39 0 00.3-.13l.3-.3h3.27a.75.75 0 00.6-.26L20.4 6a.5.5 0 00.08 0 .5.5 0 01.07-.08l.83-.92A2.2 2.2 0 0022 3.45a2.2 2.2 0 00-.62-1.56zM12.19 13H9.41v-2.88h.85v1.32a.64.64 0 00.64.66h1.29zm.85-.62v-.46a.64.64 0 00-.64-.66h-1.28V9.9a.63.63 0 00-.64-.65H10l6.55-6.72 3 3.12zm7.74-7.98l-.6.61-3-3.12.6-.61a1.26 1.26 0 011.81 0l1.22 1.25a1.28 1.28 0 01.36.92 1.37 1.37 0 01-.39.95z" data-name="Camada 1"/></g></symbol>
    <symbol viewBox="0 0 20 20" id="z-user" xmlns="http://www.w3.org/2000/svg"><g data-name="Camada 2"><path d="M10 12c2.73 0 5.14-3.28 5.14-7A5.07 5.07 0 0010 0a5.07 5.07 0 00-5.15 5c0 3.72 2.41 7 5.15 7zM10 .8A4.3 4.3 0 0114.16 4a2.25 2.25 0 01-2.36-1 .41.41 0 00-.21-.26.41.41 0 00-.55.18C10.38 4.2 8.26 4.7 5.76 4.2A4.27 4.27 0 0110 .8zM7.59 5.2a4.94 4.94 0 003.82-1.38 3.12 3.12 0 002.3 1 2.86 2.86 0 00.58-.06V5c0 3.3-2 6.2-4.32 6.2S5.67 8.3 5.67 5a11.19 11.19 0 001.92.2zm12.35 13.24l-1-3a5.46 5.46 0 00-3.9-3.74l-.27-.08h-.1a1 1 0 00-1 .3A5 5 0 0110 13.78a5.09 5.09 0 01-3.73-1.88 1.1 1.1 0 00-1-.32.25.25 0 00-.12 0l-.25.08A5.45 5.45 0 001 15.42l-1 3.06a1.21 1.21 0 00.21 1.06 1.18 1.18 0 001 .46h17.56a1.22 1.22 0 001-.48 1.14 1.14 0 00.17-1.08zm-.84.56a.45.45 0 01-.33.16H1.22A.36.36 0 01.91 19a.43.43 0 01-.09-.36l1-3a4.62 4.62 0 013.37-3.18l.21-.06a.15.15 0 00.1 0 .22.22 0 01.2.06 5.93 5.93 0 004.3 2.12 5.89 5.89 0 004.34-2.16.27.27 0 01.2-.08h.08l.27.08a4.64 4.64 0 013.35 3.18l.95 3a.53.53 0 01-.09.4z" data-name="Camada 1"/></g></symbol>
</svg>