<svg class="svg-sprites" id="skin-sprite" xmlns="http://www.w3.org/2000/svg" xmlns:xlink="http://www.w3.org/1999/xlink">
    <symbol viewBox="0 0 20 17.65" id="z-cart" xmlns="http://www.w3.org/2000/svg"><g data-name="Camada 2"><path d="M14.61 13.89a1.88 1.88 0 101.85 1.88 1.88 1.88 0 00-1.85-1.88zm0 3a1.13 1.13 0 111.11-1.13 1.13 1.13 0 01-1.11 1.14zm-7.43-3A1.88 1.88 0 109 15.77a1.87 1.87 0 00-1.82-1.88zm0 3a1.13 1.13 0 111.12-1.12 1.12 1.12 0 01-1.12 1.13zM19.8 3.12a1.08 1.08 0 00-.9-.49H3.75L3.53 1.5A1.84 1.84 0 001.71 0H.37a.38.38 0 000 .75h1.34a1.08 1.08 0 011.07.9l.28 1.43a.25.25 0 000 .11l1.6 8.45a1.88 1.88 0 001.83 1.52h8.69A1.86 1.86 0 0017 11.94l3-7.77a1.12 1.12 0 00-.2-1.05zm-.57.77l-2.95 7.77a1.11 1.11 0 01-1 .73H6.55a1.14 1.14 0 01-1.09-.92L4.34 5.63h8.76a.38.38 0 100-.75H4.19l-.27-1.5h15a.35.35 0 01.29.15.36.36 0 01.02.36zm-3.9 1h-.56a.38.38 0 000 .75h.56a.38.38 0 000-.75z" data-name="Camada 1"/></g></symbol>
    <symbol viewBox="0 0 20 14" id="z-menu" xmlns="http://www.w3.org/2000/svg"><g data-name="Camada 2"><path d="M19.19 6.18H.81a.82.82 0 000 1.64h18.38a.82.82 0 000-1.64zM.81 1.63h18.38A.81.81 0 0020 .82a.81.81 0 00-.81-.82H.81A.81.81 0 000 .82a.81.81 0 00.81.81zm18.38 10.74H.81a.82.82 0 000 1.63h18.38a.82.82 0 000-1.63z" data-name="Camada 1"/></g></symbol>
    <symbol viewBox="0 0 20 20" id="z-search" xmlns="http://www.w3.org/2000/svg"><g data-name="Camada 2"><path d="M12 0a8.1 8.1 0 00-6 13.32l-5.86 6a.41.41 0 000 .59.37.37 0 00.28.09.39.39 0 00.29-.13l5.84-5.93A7.91 7.91 0 0012 16.17a8 8 0 008-8.08A8 8 0 0012 0zm0 15.32A7.24 7.24 0 0112 .85a7.24 7.24 0 010 14.47zm-4.46-10a.44.44 0 00.34-.17l.18-.25A.42.42 0 008 4.34a.4.4 0 00-.59.09l-.18.25a.42.42 0 00.08.6.41.41 0 00.27.08zM7 8.09a5.58 5.58 0 01.16-1.3.41.41 0 00-.29-.53.41.41 0 00-.52.29 5.87 5.87 0 001.71 5.9.53.53 0 00.28.1.39.39 0 00.31-.15.42.42 0 000-.59A5.05 5.05 0 017 8.09z" data-name="Camada 1"/></g></symbol>
</svg>